<svg width="20" height="21" viewBox="0 0 20 21" fill="none" xmlns="http://www.w3.org/2000/svg">
<path d="M19.1362 12.8569L15.75 10.8253V9C15.7512 8.86721 15.7171 8.73648 15.6512 8.62118C15.5853 8.50588 15.49 8.41014 15.375 8.34375L10.5 5.565V3.75H12C12.1989 3.75 12.3897 3.67098 12.5303 3.53033C12.671 3.38968 12.75 3.19891 12.75 3C12.75 2.80109 12.671 2.61032 12.5303 2.46967C12.3897 2.32902 12.1989 2.25 12 2.25H10.5V0.75C10.5 0.551088 10.421 0.360322 10.2803 0.21967C10.1397 0.0790176 9.94891 0 9.75 0C9.55109 0 9.36032 0.0790176 9.21967 0.21967C9.07902 0.360322 9 0.551088 9 0.75V2.25H7.5C7.30109 2.25 7.11032 2.32902 6.96967 2.46967C6.82902 2.61032 6.75 2.80109 6.75 3C6.75 3.19891 6.82902 3.38968 6.96967 3.53033C7.11032 3.67098 7.30109 3.75 7.5 3.75H9V5.565L4.125 8.34844C4.00999 8.41483 3.91467 8.51057 3.84879 8.62587C3.7829 8.74117 3.74881 8.8719 3.75 9.00469V10.83L0.36375 12.8569C0.252762 12.9236 0.160928 13.0178 0.0971842 13.1305C0.0334408 13.2432 -4.00757e-05 13.3705 3.59994e-08 13.5V19.5C3.59994e-08 19.6989 0.0790176 19.8897 0.21967 20.0303C0.360322 20.171 0.551088 20.25 0.75 20.25H8.25C8.44891 20.25 8.63968 20.171 8.78033 20.0303C8.92098 19.8897 9 19.6989 9 19.5V15C9 14.8011 9.07902 14.6103 9.21967 14.4697C9.36032 14.329 9.55109 14.25 9.75 14.25C9.94891 14.25 10.1397 14.329 10.2803 14.4697C10.421 14.6103 10.5 14.8011 10.5 15V19.5C10.5 19.6989 10.579 19.8897 10.7197 20.0303C10.8603 20.171 11.0511 20.25 11.25 20.25H18.75C18.9489 20.25 19.1397 20.171 19.2803 20.0303C19.421 19.8897 19.5 19.6989 19.5 19.5V13.5C19.5 13.3705 19.4666 13.2432 19.4028 13.1305C19.3391 13.0178 19.2472 12.9236 19.1362 12.8569ZM1.5 13.9247L3.75 12.5747V18.75H1.5V13.9247ZM9.75 12.75C9.15326 12.75 8.58097 12.9871 8.15901 13.409C7.73705 13.831 7.5 14.4033 7.5 15V18.75H5.25V9.435L9.75 6.86344L14.25 9.435V18.75H12V15C12 14.4033 11.7629 13.831 11.341 13.409C10.919 12.9871 10.3467 12.75 9.75 12.75ZM18 18.75H15.75V12.5747L18 13.9247V18.75Z" fill="#B2E75A"/>
</svg>
