<svg width="24" height="24" viewBox="0 0 24 24" fill="none" xmlns="http://www.w3.org/2000/svg">
<path d="M20.641 9.37501L19.0182 6.56251C18.6701 5.95979 18.0969 5.51997 17.4246 5.33977C16.7524 5.15957 16.036 5.25374 15.4332 5.60157C15.097 5.79581 14.8087 6.063 14.5894 6.38344L12.9563 3.56251C12.7258 3.16384 12.3945 2.83282 11.9956 2.60269C11.5967 2.37256 11.1443 2.25142 10.6838 2.25142C10.2233 2.25142 9.7709 2.37256 9.37201 2.60269C8.97313 2.83282 8.64181 3.16384 8.41131 3.56251C7.93194 3.18505 7.33605 2.98637 6.72608 3.00062C6.11611 3.01486 5.53015 3.24115 5.06893 3.64057C4.6077 4.04 4.30002 4.58761 4.19877 5.18929C4.09752 5.79097 4.20903 6.40912 4.51412 6.93751L4.66318 7.19626C4.27529 7.22634 3.89913 7.34329 3.56256 7.53844C2.95974 7.88668 2.51995 8.46011 2.33991 9.1326C2.15988 9.80508 2.25435 10.5215 2.60256 11.1244L6.35256 17.6231C6.89207 18.563 7.61255 19.3867 8.47232 20.0464C9.3321 20.7062 10.3141 21.189 11.3616 21.4669C12.0625 21.6541 12.7849 21.7487 13.5104 21.7481C14.9574 21.7457 16.3782 21.3627 17.6304 20.6376C18.8826 19.9125 19.9221 18.8708 20.6445 17.617C21.3669 16.3633 21.7469 14.9416 21.7463 13.4946C21.7457 12.0476 21.3645 10.6263 20.641 9.37313V9.37501ZM20.0166 15.2475C19.6709 16.5367 18.9506 17.6945 17.947 18.5745C16.9433 19.4544 15.7013 20.0171 14.3779 20.1913C13.0545 20.3655 11.7092 20.1434 10.512 19.5531C9.31483 18.9628 8.31953 18.0309 7.65193 16.875L3.90193 10.3763C3.75918 10.1183 3.72339 9.81463 3.80226 9.53056C3.88113 9.24649 4.06836 9.00473 4.32366 8.8573C4.57896 8.70987 4.88194 8.66854 5.1674 8.74222C5.45286 8.8159 5.69799 8.99868 5.85006 9.25126L7.65287 12.375C7.70066 12.463 7.7656 12.5406 7.84385 12.6031C7.9221 12.6656 8.01208 12.7118 8.10847 12.739C8.20487 12.7661 8.30573 12.7737 8.40511 12.7613C8.50449 12.7489 8.60037 12.7166 8.6871 12.6666C8.77382 12.6165 8.84964 12.5495 8.91007 12.4696C8.97049 12.3898 9.01431 12.2986 9.03894 12.2015C9.06357 12.1044 9.0685 12.0034 9.05345 11.9044C9.0384 11.8054 9.00367 11.7104 8.95131 11.625L5.81256 6.18751C5.73546 6.05946 5.68466 5.91733 5.66311 5.76943C5.64156 5.62153 5.6497 5.47081 5.68706 5.32609C5.72441 5.18137 5.79022 5.04554 5.88066 4.92654C5.97109 4.80754 6.08433 4.70776 6.21377 4.63301C6.3432 4.55827 6.48623 4.51006 6.6345 4.49122C6.78277 4.47237 6.93331 4.48326 7.07732 4.52324C7.22134 4.56323 7.35595 4.63151 7.47328 4.7241C7.59061 4.81669 7.68831 4.93173 7.76068 5.06251L10.6876 10.125C10.7354 10.213 10.8003 10.2906 10.8785 10.3531C10.9568 10.4156 11.0468 10.4618 11.1432 10.489C11.2396 10.5161 11.3404 10.5237 11.4398 10.5113C11.5392 10.4989 11.6351 10.4666 11.7218 10.4165C11.8085 10.3665 11.8843 10.2995 11.9448 10.2196C12.0052 10.1398 12.049 10.0486 12.0736 9.95152C12.0983 9.85444 12.1032 9.75341 12.0881 9.6544C12.0731 9.55538 12.0384 9.46038 11.986 9.37501L9.70974 5.43751C9.63265 5.30946 9.58185 5.16733 9.5603 5.01943C9.53875 4.87153 9.54689 4.72081 9.58424 4.57609C9.62159 4.43137 9.68741 4.29554 9.77785 4.17654C9.86828 4.05754 9.98152 3.95776 10.111 3.88301C10.2404 3.80827 10.3834 3.76006 10.5317 3.74122C10.68 3.72237 10.8305 3.73326 10.9745 3.77324C11.1185 3.81323 11.2531 3.88151 11.3705 3.9741C11.4878 4.06669 11.5855 4.18173 11.6579 4.31251L14.791 9.74063C14.0612 10.4817 13.6107 11.4527 13.516 12.4884C13.4213 13.5242 13.6883 14.5608 14.2716 15.4219C14.3835 15.5865 14.5562 15.6999 14.7517 15.7372C14.9472 15.7744 15.1495 15.7325 15.3141 15.6206C15.4787 15.5087 15.5921 15.336 15.6294 15.1405C15.6667 14.945 15.6248 14.7427 15.5129 14.5781C15.0821 13.9402 14.9131 13.1612 15.0406 12.4021C15.1682 11.6431 15.5826 10.9621 16.1982 10.5C16.3449 10.39 16.4463 10.2301 16.483 10.0504C16.5198 9.87074 16.4895 9.68383 16.3979 9.52501L15.7716 8.43751C15.692 8.30944 15.6389 8.16667 15.6155 8.01768C15.5922 7.86869 15.599 7.71652 15.6356 7.57022C15.6722 7.42392 15.7379 7.28648 15.8287 7.16607C15.9195 7.04565 16.0336 6.94472 16.1641 6.86927C16.2947 6.79383 16.4391 6.74541 16.5888 6.72689C16.7385 6.70838 16.8904 6.72014 17.0354 6.76149C17.1804 6.80284 17.3157 6.87293 17.4331 6.96758C17.5505 7.06224 17.6476 7.17954 17.7188 7.31251L19.3416 10.125C19.7869 10.8916 20.0758 11.7388 20.1917 12.6178C20.3075 13.4967 20.248 14.3898 20.0166 15.2456V15.2475ZM17.2735 2.97282C17.324 2.78076 17.4485 2.61655 17.6199 2.5162C17.7912 2.41585 17.9954 2.38755 18.1876 2.43751C18.9039 2.62628 19.5755 2.95556 20.1634 3.4062C20.7513 3.85684 21.2438 4.41985 21.6122 5.06251L21.6432 5.11594C21.6955 5.20132 21.7303 5.29632 21.7453 5.39533C21.7604 5.49435 21.7554 5.59538 21.7308 5.69246C21.7062 5.78954 21.6624 5.8807 21.6019 5.96057C21.5415 6.04044 21.4657 6.10739 21.379 6.15749C21.2922 6.20758 21.1964 6.2398 21.097 6.25224C20.9976 6.26468 20.8967 6.25708 20.8004 6.22991C20.704 6.20274 20.614 6.15653 20.5357 6.09402C20.4575 6.03151 20.3925 5.95396 20.3447 5.86594L20.3138 5.81251C20.0434 5.34153 19.682 4.92906 19.2507 4.59911C18.8193 4.26916 18.3266 4.02832 17.8013 3.89063C17.6098 3.8386 17.4467 3.71279 17.3478 3.54076C17.2489 3.36873 17.2222 3.16451 17.2735 2.97282ZM7.58349 22.2188C7.46036 22.3748 7.28031 22.4756 7.0829 22.499C6.88548 22.5224 6.68686 22.4664 6.53068 22.3434C5.40892 21.4574 4.46699 20.365 3.75568 19.125C3.70644 19.0397 3.67448 18.9455 3.66163 18.8478C3.64878 18.7502 3.6553 18.6509 3.68081 18.5558C3.70631 18.4606 3.75031 18.3714 3.81029 18.2933C3.87027 18.2151 3.94505 18.1496 4.03037 18.1003C4.11569 18.0511 4.20987 18.0191 4.30754 18.0063C4.40521 17.9934 4.50445 17.9999 4.5996 18.0254C4.69475 18.0509 4.78395 18.0949 4.8621 18.1549C4.94024 18.2149 5.00581 18.2897 5.05506 18.375C5.67157 19.4483 6.48744 20.394 7.45881 21.1613C7.53676 21.2223 7.60186 21.2981 7.65036 21.3844C7.69886 21.4707 7.7298 21.5657 7.74139 21.664C7.75298 21.7623 7.74499 21.862 7.71789 21.9572C7.6908 22.0524 7.64512 22.1413 7.58349 22.2188Z" fill="#365200"/>
</svg>
